<?xml version="1.0" encoding="UTF-8"?>
<svg id="Layer_1" data-name="Layer 1" xmlns="http://www.w3.org/2000/svg" viewBox="0 0 144.52 144.5">
  <path d="M53.25,66.82c-9.35-9.46-18.14-18.27-26.79-27.23-.91-.94-1.32-2.69-1.36-4.07-.15-5.48-.06-10.97-.06-18.13,9.97,9.95,19.01,18.97,28.28,28.22,2.77-2.8,5.2-5.24,8.27-8.34-4.96-4.79-10-9.13-14.34-14.08-1.96-2.24-3.19-5.63-3.58-8.64-.59-4.55-.15-9.22-.15-14.35,9.37,9.49,18.24,18.48,27.31,27.67,9.93-9.99,18.82-18.92,27.7-27.86.43.21.85.43,1.28.64-.83,8.71,3.05,17.62-5.84,25.61-13.96,12.54-26.69,26.46-40.71,40.58Z" fill="#fff" stroke-width="0"/>
  <path d="M77.72,52.96c9.09-9.08,17.89-17.92,26.77-26.66.74-.72,2.06-1.16,3.13-1.18,5.78-.11,11.57-.05,17.98-.05-9.52,9.39-18.55,18.29-27.97,27.58,3.63,3.21,6.29,5.57,9.5,8.41,4.51-4.65,9.05-9.75,14.07-14.32,1.88-1.71,4.81-2.84,7.37-3.09,4.9-.48,9.89-.14,15.94-.14-9.89,9.69-18.95,18.56-28.14,27.56,9.74,9.71,18.66,18.6,27.59,27.5l-.51,1.25c-6.21,0-12.42.08-18.63-.08-.97-.03-2.05-1.03-2.84-1.82-14.27-14.23-28.51-28.49-42.75-42.76-.45-.45-.75-1.07-1.52-2.19Z" fill="#fff" stroke-width="0"/>
  <path d="M17.78,118.74c9.95-9.85,19-18.8,28.38-28.09-3.19-2.93-5.73-5.24-9.02-8.26-4.35,4.52-8.94,9.05-13.23,13.84-2.54,2.83-5.3,4.13-9.15,3.88-4.6-.3-9.23-.07-14.51-.07,9.58-9.22,18.6-17.9,28.1-27.05C18.13,63,9.06,54.14,0,45.28c.27-.47.54-.93.81-1.4,6.06,0,12.13-.1,18.18.09,1.13.04,2.4,1.1,3.29,1.99,14.16,14.11,28.27,28.26,42.38,42.42.56.56.93,1.31,1.75,2.5-9.04,8.95-17.97,17.87-27.03,26.67-.83.8-2.43,1.11-3.68,1.13-5.49.12-10.98.05-17.93.05Z" fill="#fff" stroke-width="0"/>
  <path d="M100.09,144.5c-9.89-9.96-18.73-18.88-27.97-28.19-9.26,9.44-18.05,18.4-26.85,27.36-.41-.19-.82-.39-1.24-.58,0-6.2-.08-12.4.09-18.59.03-.96,1.07-2.01,1.87-2.81,13.97-14.04,27.98-28.06,41.99-42.06.68-.68,1.55-1.17,3.02-2.26,6.2,6.32,11.7,13.46,18.66,18.65,10.5,7.83,9.83,18.01,8.78,29.1-9.14-9.26-18.07-18.3-27.5-27.85-2.96,3.67-5.13,6.34-7.78,9.62,3.91,3.92,8.28,8.64,13.02,12.95,2.97,2.7,4.25,5.6,3.97,9.6-.31,4.46-.07,8.97-.07,15.05Z" fill="#fff" stroke-width="0"/>
</svg>